<svg width="142" height="28" viewBox="0 0 142 28" fill="none" xmlns="http://www.w3.org/2000/svg">
<rect x="0.5" y="0.5" width="141" height="27" rx="7.5" fill="#151618"/>
<rect x="0.5" y="0.5" width="141" height="27" rx="7.5" stroke="#27282B"/>
<rect x="6" y="6" width="16" height="16" rx="2" fill="#6E56CF"/>
<path d="M16 15V19H18V15H16Z" fill="white"/>
<path d="M10 9V19H12V15H16V13H12V11H16V13H18V9H10Z" fill="white"/>
<path d="M28.392 19L32.102 8.92H33.67L30.184 19H28.392ZM35.994 19L32.522 8.92H34.174L37.87 19H35.994ZM30.31 15.038H35.826V16.494H30.31V15.038ZM39.6682 19L37.4842 11.86H39.3322L40.6202 17.222H40.4942L42.0762 11.86H43.6862L45.2962 17.222H45.1562L46.4302 11.86H48.2362L46.0522 19H44.4002L42.7902 13.694H42.9302L41.3202 19H39.6682ZM52.3188 19.14C51.5628 19.14 50.9001 18.9813 50.3308 18.664C49.7708 18.3467 49.3321 17.908 49.0148 17.348C48.7068 16.788 48.5528 16.144 48.5528 15.416C48.5528 14.688 48.7068 14.0487 49.0148 13.498C49.3321 12.938 49.7708 12.504 50.3308 12.196C50.8908 11.8787 51.5441 11.72 52.2908 11.72C53.0001 11.72 53.6161 11.8693 54.1388 12.168C54.6614 12.4573 55.0674 12.868 55.3568 13.4C55.6461 13.932 55.7908 14.5527 55.7908 15.262C55.7908 15.3927 55.7861 15.514 55.7768 15.626C55.7674 15.738 55.7534 15.85 55.7348 15.962H49.6448V14.73H54.3768L54.0128 15.066C54.0128 14.394 53.8588 13.89 53.5508 13.554C53.2428 13.218 52.8134 13.05 52.2628 13.05C51.6654 13.05 51.1894 13.2553 50.8348 13.666C50.4894 14.0767 50.3168 14.6693 50.3168 15.444C50.3168 16.2093 50.4894 16.7973 50.8348 17.208C51.1894 17.6093 51.6888 17.81 52.3328 17.81C52.7061 17.81 53.0328 17.74 53.3128 17.6C53.5928 17.46 53.7981 17.2453 53.9288 16.956H55.5948C55.3614 17.628 54.9648 18.16 54.4048 18.552C53.8541 18.944 53.1588 19.14 52.3188 19.14ZM59.7768 19.14C58.7875 19.14 57.9988 18.9347 57.4108 18.524C56.8228 18.104 56.5008 17.5253 56.4448 16.788H58.0548C58.1015 17.152 58.2742 17.4273 58.5728 17.614C58.8715 17.8007 59.2728 17.894 59.7768 17.894C60.2342 17.894 60.5748 17.824 60.7988 17.684C61.0322 17.5347 61.1488 17.3247 61.1488 17.054C61.1488 16.858 61.0835 16.6993 60.9528 16.578C60.8222 16.4473 60.5748 16.34 60.2108 16.256L59.0628 15.99C58.2788 15.822 57.6955 15.5607 57.3128 15.206C56.9395 14.842 56.7528 14.3893 56.7528 13.848C56.7528 13.1853 57.0048 12.6673 57.5088 12.294C58.0222 11.9113 58.7268 11.72 59.6228 11.72C60.5095 11.72 61.2188 11.9113 61.7508 12.294C62.2922 12.6673 62.5908 13.1853 62.6468 13.848H61.0368C60.9902 13.5587 60.8408 13.3393 60.5888 13.19C60.3462 13.0407 60.0102 12.966 59.5808 12.966C59.1795 12.966 58.8762 13.0313 58.6708 13.162C58.4655 13.2833 58.3628 13.4653 58.3628 13.708C58.3628 13.8947 58.4422 14.0533 58.6008 14.184C58.7595 14.3053 59.0255 14.4127 59.3988 14.506L60.6308 14.786C61.3308 14.9447 61.8582 15.22 62.2128 15.612C62.5768 16.004 62.7588 16.466 62.7588 16.998C62.7588 17.6793 62.4975 18.2067 61.9748 18.58C61.4522 18.9533 60.7195 19.14 59.7768 19.14ZM67.3402 19.14C66.5842 19.14 65.9169 18.9813 65.3382 18.664C64.7689 18.3467 64.3256 17.908 64.0082 17.348C63.6909 16.7787 63.5322 16.13 63.5322 15.402C63.5322 14.674 63.6909 14.0347 64.0082 13.484C64.3256 12.9333 64.7689 12.504 65.3382 12.196C65.9169 11.8787 66.5842 11.72 67.3402 11.72C68.1056 11.72 68.7729 11.8787 69.3422 12.196C69.9116 12.504 70.3549 12.9333 70.6722 13.484C70.9896 14.0347 71.1482 14.674 71.1482 15.402C71.1482 16.13 70.9849 16.7787 70.6582 17.348C70.3409 17.908 69.8976 18.3467 69.3282 18.664C68.7589 18.9813 68.0962 19.14 67.3402 19.14ZM67.3402 17.726C67.7136 17.726 68.0496 17.6327 68.3482 17.446C68.6469 17.25 68.8802 16.9793 69.0482 16.634C69.2162 16.2793 69.3002 15.864 69.3002 15.388C69.3002 14.688 69.1136 14.1373 68.7402 13.736C68.3762 13.3347 67.9096 13.134 67.3402 13.134C66.7709 13.134 66.2996 13.3347 65.9262 13.736C65.5529 14.1373 65.3662 14.688 65.3662 15.388C65.3662 15.864 65.4502 16.2793 65.6182 16.634C65.7956 16.9793 66.0289 17.25 66.3182 17.446C66.6169 17.6327 66.9576 17.726 67.3402 17.726ZM72.3407 19V11.86H74.0627V13.54H74.1047V19H72.3407ZM77.1427 19V14.394C77.1427 13.974 77.0354 13.666 76.8207 13.47C76.6154 13.2647 76.3214 13.162 75.9387 13.162C75.6027 13.162 75.2947 13.2413 75.0147 13.4C74.7347 13.5587 74.5107 13.7827 74.3427 14.072C74.1841 14.3613 74.1047 14.6973 74.1047 15.08L73.9227 13.442C74.1654 12.9193 74.5154 12.504 74.9727 12.196C75.4301 11.8787 75.9621 11.72 76.5687 11.72C77.2967 11.72 77.8707 11.93 78.2907 12.35C78.7107 12.7607 78.9207 13.2927 78.9207 13.946V19H77.1427ZM81.9447 19V14.394C81.9447 13.974 81.8421 13.666 81.6367 13.47C81.4314 13.2647 81.1374 13.162 80.7547 13.162C80.4094 13.162 80.0967 13.2413 79.8167 13.4C79.5367 13.5587 79.3174 13.7827 79.1587 14.072C79.0001 14.3613 78.9207 14.6973 78.9207 15.08L78.6127 13.442C78.8461 12.9193 79.2007 12.504 79.6767 12.196C80.1527 11.8787 80.7034 11.72 81.3287 11.72C82.0754 11.72 82.6587 11.9347 83.0787 12.364C83.5081 12.784 83.7227 13.344 83.7227 14.044V19H81.9447ZM88.6214 19.14C87.8654 19.14 87.2028 18.9813 86.6334 18.664C86.0734 18.3467 85.6348 17.908 85.3174 17.348C85.0094 16.788 84.8554 16.144 84.8554 15.416C84.8554 14.688 85.0094 14.0487 85.3174 13.498C85.6348 12.938 86.0734 12.504 86.6334 12.196C87.1934 11.8787 87.8468 11.72 88.5934 11.72C89.3028 11.72 89.9188 11.8693 90.4414 12.168C90.9641 12.4573 91.3701 12.868 91.6594 13.4C91.9488 13.932 92.0934 14.5527 92.0934 15.262C92.0934 15.3927 92.0888 15.514 92.0794 15.626C92.0701 15.738 92.0561 15.85 92.0374 15.962H85.9474V14.73H90.6794L90.3154 15.066C90.3154 14.394 90.1614 13.89 89.8534 13.554C89.5454 13.218 89.1161 13.05 88.5654 13.05C87.9681 13.05 87.4921 13.2553 87.1374 13.666C86.7921 14.0767 86.6194 14.6693 86.6194 15.444C86.6194 16.2093 86.7921 16.7973 87.1374 17.208C87.4921 17.6093 87.9914 17.81 88.6354 17.81C89.0088 17.81 89.3354 17.74 89.6154 17.6C89.8954 17.46 90.1008 17.2453 90.2314 16.956H91.8974C91.6641 17.628 91.2674 18.16 90.7074 18.552C90.1568 18.944 89.4614 19.14 88.6214 19.14ZM95.7985 19V8.92H100.055C100.773 8.92 101.399 9.04133 101.931 9.284C102.463 9.52667 102.869 9.86733 103.149 10.306C103.438 10.7447 103.583 11.258 103.583 11.846C103.583 12.4247 103.438 12.9333 103.149 13.372C102.869 13.8107 102.463 14.1513 101.931 14.394C101.399 14.6367 100.773 14.758 100.055 14.758H97.2265V13.372H99.9985C100.587 13.372 101.035 13.2367 101.343 12.966C101.66 12.6953 101.819 12.322 101.819 11.846C101.819 11.37 101.665 11.006 101.357 10.754C101.049 10.4927 100.596 10.362 99.9985 10.362H97.6185V19H95.7985ZM101.567 19L97.0725 13.848H99.1165L104.087 19H101.567ZM107.885 19.14C107.129 19.14 106.466 18.9813 105.897 18.664C105.337 18.3467 104.898 17.908 104.581 17.348C104.273 16.788 104.119 16.144 104.119 15.416C104.119 14.688 104.273 14.0487 104.581 13.498C104.898 12.938 105.337 12.504 105.897 12.196C106.457 11.8787 107.11 11.72 107.857 11.72C108.566 11.72 109.182 11.8693 109.705 12.168C110.227 12.4573 110.633 12.868 110.923 13.4C111.212 13.932 111.357 14.5527 111.357 15.262C111.357 15.3927 111.352 15.514 111.343 15.626C111.333 15.738 111.319 15.85 111.301 15.962H105.211V14.73H109.943L109.579 15.066C109.579 14.394 109.425 13.89 109.117 13.554C108.809 13.218 108.379 13.05 107.829 13.05C107.231 13.05 106.755 13.2553 106.401 13.666C106.055 14.0767 105.883 14.6693 105.883 15.444C105.883 16.2093 106.055 16.7973 106.401 17.208C106.755 17.6093 107.255 17.81 107.899 17.81C108.272 17.81 108.599 17.74 108.879 17.6C109.159 17.46 109.364 17.2453 109.495 16.956H111.161C110.927 17.628 110.531 18.16 109.971 18.552C109.42 18.944 108.725 19.14 107.885 19.14ZM113.022 19V11.342C113.022 10.558 113.242 9.96067 113.68 9.55C114.119 9.13 114.777 8.92 115.654 8.92H118.496V10.418H115.892C115.519 10.418 115.239 10.5113 115.052 10.698C114.875 10.8753 114.786 11.1367 114.786 11.482V19H113.022ZM111.734 13.33V11.86H116.214V13.33H111.734ZM117.6 19V8.92H119.378V19H117.6ZM124.3 19.14C123.544 19.14 122.881 18.9813 122.312 18.664C121.752 18.3467 121.313 17.908 120.996 17.348C120.688 16.788 120.534 16.144 120.534 15.416C120.534 14.688 120.688 14.0487 120.996 13.498C121.313 12.938 121.752 12.504 122.312 12.196C122.872 11.8787 123.525 11.72 124.272 11.72C124.981 11.72 125.597 11.8693 126.12 12.168C126.642 12.4573 127.048 12.868 127.338 13.4C127.627 13.932 127.772 14.5527 127.772 15.262C127.772 15.3927 127.767 15.514 127.758 15.626C127.748 15.738 127.734 15.85 127.716 15.962H121.626V14.73H126.358L125.994 15.066C125.994 14.394 125.84 13.89 125.532 13.554C125.224 13.218 124.794 13.05 124.244 13.05C123.646 13.05 123.17 13.2553 122.816 13.666C122.47 14.0767 122.298 14.6693 122.298 15.444C122.298 16.2093 122.47 16.7973 122.816 17.208C123.17 17.6093 123.67 17.81 124.314 17.81C124.687 17.81 125.014 17.74 125.294 17.6C125.574 17.46 125.779 17.2453 125.91 16.956H127.576C127.342 17.628 126.946 18.16 126.386 18.552C125.835 18.944 125.14 19.14 124.3 19.14ZM133.299 19L131.101 15.808L128.133 11.86H130.135L132.123 14.758L135.301 19H133.299ZM131.241 14.702L133.243 11.86H135.203L132.095 15.934L131.241 14.702ZM131.941 16.018L129.785 19H127.839L131.101 14.772L131.941 16.018Z" fill="#FCFCFD"/>
</svg>
