<svg width="150" height="36" viewBox="0 0 150 36" fill="none" xmlns="http://www.w3.org/2000/svg">
<g filter="url(#filter0_d_10442_4563)">
<rect x="4" y="2" width="142" height="28" rx="8" fill="#FCFCFD"/>
<rect x="4.5" y="2.5" width="141" height="27" rx="7.5" stroke="#E8E8EC"/>
<rect x="10" y="8" width="16" height="16" rx="2" fill="#6E56CF"/>
<path d="M20 17V21H22V17H20Z" fill="white"/>
<path d="M14 11V21H16V17H20V15H16V13H20V15H22V11H14Z" fill="white"/>
<path d="M32.392 21L36.102 10.92H37.67L34.184 21H32.392ZM39.994 21L36.522 10.92H38.174L41.87 21H39.994ZM34.31 17.038H39.826V18.494H34.31V17.038ZM43.6682 21L41.4842 13.86H43.3322L44.6202 19.222H44.4942L46.0762 13.86H47.6862L49.2962 19.222H49.1562L50.4302 13.86H52.2362L50.0522 21H48.4002L46.7902 15.694H46.9302L45.3202 21H43.6682ZM56.3188 21.14C55.5628 21.14 54.9001 20.9813 54.3308 20.664C53.7708 20.3467 53.3321 19.908 53.0148 19.348C52.7068 18.788 52.5528 18.144 52.5528 17.416C52.5528 16.688 52.7068 16.0487 53.0148 15.498C53.3321 14.938 53.7708 14.504 54.3308 14.196C54.8908 13.8787 55.5441 13.72 56.2908 13.72C57.0001 13.72 57.6161 13.8693 58.1388 14.168C58.6614 14.4573 59.0674 14.868 59.3568 15.4C59.6461 15.932 59.7908 16.5527 59.7908 17.262C59.7908 17.3927 59.7861 17.514 59.7768 17.626C59.7674 17.738 59.7534 17.85 59.7348 17.962H53.6448V16.73H58.3768L58.0128 17.066C58.0128 16.394 57.8588 15.89 57.5508 15.554C57.2428 15.218 56.8134 15.05 56.2628 15.05C55.6654 15.05 55.1894 15.2553 54.8348 15.666C54.4894 16.0767 54.3168 16.6693 54.3168 17.444C54.3168 18.2093 54.4894 18.7973 54.8348 19.208C55.1894 19.6093 55.6888 19.81 56.3328 19.81C56.7061 19.81 57.0328 19.74 57.3128 19.6C57.5928 19.46 57.7981 19.2453 57.9288 18.956H59.5948C59.3614 19.628 58.9648 20.16 58.4048 20.552C57.8541 20.944 57.1588 21.14 56.3188 21.14ZM63.7768 21.14C62.7875 21.14 61.9988 20.9347 61.4108 20.524C60.8228 20.104 60.5008 19.5253 60.4448 18.788H62.0548C62.1015 19.152 62.2742 19.4273 62.5728 19.614C62.8715 19.8007 63.2728 19.894 63.7768 19.894C64.2342 19.894 64.5748 19.824 64.7988 19.684C65.0322 19.5347 65.1488 19.3247 65.1488 19.054C65.1488 18.858 65.0835 18.6993 64.9528 18.578C64.8222 18.4473 64.5748 18.34 64.2108 18.256L63.0628 17.99C62.2788 17.822 61.6955 17.5607 61.3128 17.206C60.9395 16.842 60.7528 16.3893 60.7528 15.848C60.7528 15.1853 61.0048 14.6673 61.5088 14.294C62.0222 13.9113 62.7268 13.72 63.6228 13.72C64.5095 13.72 65.2188 13.9113 65.7508 14.294C66.2922 14.6673 66.5908 15.1853 66.6468 15.848H65.0368C64.9902 15.5587 64.8408 15.3393 64.5888 15.19C64.3462 15.0407 64.0102 14.966 63.5808 14.966C63.1795 14.966 62.8762 15.0313 62.6708 15.162C62.4655 15.2833 62.3628 15.4653 62.3628 15.708C62.3628 15.8947 62.4422 16.0533 62.6008 16.184C62.7595 16.3053 63.0255 16.4127 63.3988 16.506L64.6308 16.786C65.3308 16.9447 65.8582 17.22 66.2128 17.612C66.5768 18.004 66.7588 18.466 66.7588 18.998C66.7588 19.6793 66.4975 20.2067 65.9748 20.58C65.4522 20.9533 64.7195 21.14 63.7768 21.14ZM71.3402 21.14C70.5842 21.14 69.9169 20.9813 69.3382 20.664C68.7689 20.3467 68.3256 19.908 68.0082 19.348C67.6909 18.7787 67.5322 18.13 67.5322 17.402C67.5322 16.674 67.6909 16.0347 68.0082 15.484C68.3256 14.9333 68.7689 14.504 69.3382 14.196C69.9169 13.8787 70.5842 13.72 71.3402 13.72C72.1056 13.72 72.7729 13.8787 73.3422 14.196C73.9116 14.504 74.3549 14.9333 74.6722 15.484C74.9896 16.0347 75.1482 16.674 75.1482 17.402C75.1482 18.13 74.9849 18.7787 74.6582 19.348C74.3409 19.908 73.8976 20.3467 73.3282 20.664C72.7589 20.9813 72.0962 21.14 71.3402 21.14ZM71.3402 19.726C71.7136 19.726 72.0496 19.6327 72.3482 19.446C72.6469 19.25 72.8802 18.9793 73.0482 18.634C73.2162 18.2793 73.3002 17.864 73.3002 17.388C73.3002 16.688 73.1136 16.1373 72.7402 15.736C72.3762 15.3347 71.9096 15.134 71.3402 15.134C70.7709 15.134 70.2996 15.3347 69.9262 15.736C69.5529 16.1373 69.3662 16.688 69.3662 17.388C69.3662 17.864 69.4502 18.2793 69.6182 18.634C69.7956 18.9793 70.0289 19.25 70.3182 19.446C70.6169 19.6327 70.9576 19.726 71.3402 19.726ZM76.3407 21V13.86H78.0627V15.54H78.1047V21H76.3407ZM81.1427 21V16.394C81.1427 15.974 81.0354 15.666 80.8207 15.47C80.6154 15.2647 80.3214 15.162 79.9387 15.162C79.6027 15.162 79.2947 15.2413 79.0147 15.4C78.7347 15.5587 78.5107 15.7827 78.3427 16.072C78.1841 16.3613 78.1047 16.6973 78.1047 17.08L77.9227 15.442C78.1654 14.9193 78.5154 14.504 78.9727 14.196C79.4301 13.8787 79.9621 13.72 80.5687 13.72C81.2967 13.72 81.8707 13.93 82.2907 14.35C82.7107 14.7607 82.9207 15.2927 82.9207 15.946V21H81.1427ZM85.9447 21V16.394C85.9447 15.974 85.8421 15.666 85.6367 15.47C85.4314 15.2647 85.1374 15.162 84.7547 15.162C84.4094 15.162 84.0967 15.2413 83.8167 15.4C83.5367 15.5587 83.3174 15.7827 83.1587 16.072C83.0001 16.3613 82.9207 16.6973 82.9207 17.08L82.6127 15.442C82.8461 14.9193 83.2007 14.504 83.6767 14.196C84.1527 13.8787 84.7034 13.72 85.3287 13.72C86.0754 13.72 86.6587 13.9347 87.0787 14.364C87.5081 14.784 87.7227 15.344 87.7227 16.044V21H85.9447ZM92.6214 21.14C91.8654 21.14 91.2028 20.9813 90.6334 20.664C90.0734 20.3467 89.6348 19.908 89.3174 19.348C89.0094 18.788 88.8554 18.144 88.8554 17.416C88.8554 16.688 89.0094 16.0487 89.3174 15.498C89.6348 14.938 90.0734 14.504 90.6334 14.196C91.1934 13.8787 91.8468 13.72 92.5934 13.72C93.3028 13.72 93.9188 13.8693 94.4414 14.168C94.9641 14.4573 95.3701 14.868 95.6594 15.4C95.9488 15.932 96.0934 16.5527 96.0934 17.262C96.0934 17.3927 96.0888 17.514 96.0794 17.626C96.0701 17.738 96.0561 17.85 96.0374 17.962H89.9474V16.73H94.6794L94.3154 17.066C94.3154 16.394 94.1614 15.89 93.8534 15.554C93.5454 15.218 93.1161 15.05 92.5654 15.05C91.9681 15.05 91.4921 15.2553 91.1374 15.666C90.7921 16.0767 90.6194 16.6693 90.6194 17.444C90.6194 18.2093 90.7921 18.7973 91.1374 19.208C91.4921 19.6093 91.9914 19.81 92.6354 19.81C93.0088 19.81 93.3354 19.74 93.6154 19.6C93.8954 19.46 94.1008 19.2453 94.2314 18.956H95.8974C95.6641 19.628 95.2674 20.16 94.7074 20.552C94.1568 20.944 93.4614 21.14 92.6214 21.14ZM99.7985 21V10.92H104.055C104.773 10.92 105.399 11.0413 105.931 11.284C106.463 11.5267 106.869 11.8673 107.149 12.306C107.438 12.7447 107.583 13.258 107.583 13.846C107.583 14.4247 107.438 14.9333 107.149 15.372C106.869 15.8107 106.463 16.1513 105.931 16.394C105.399 16.6367 104.773 16.758 104.055 16.758H101.227V15.372H103.999C104.587 15.372 105.035 15.2367 105.343 14.966C105.66 14.6953 105.819 14.322 105.819 13.846C105.819 13.37 105.665 13.006 105.357 12.754C105.049 12.4927 104.596 12.362 103.999 12.362H101.619V21H99.7985ZM105.567 21L101.073 15.848H103.117L108.087 21H105.567ZM111.885 21.14C111.129 21.14 110.466 20.9813 109.897 20.664C109.337 20.3467 108.898 19.908 108.581 19.348C108.273 18.788 108.119 18.144 108.119 17.416C108.119 16.688 108.273 16.0487 108.581 15.498C108.898 14.938 109.337 14.504 109.897 14.196C110.457 13.8787 111.11 13.72 111.857 13.72C112.566 13.72 113.182 13.8693 113.705 14.168C114.227 14.4573 114.633 14.868 114.923 15.4C115.212 15.932 115.357 16.5527 115.357 17.262C115.357 17.3927 115.352 17.514 115.343 17.626C115.333 17.738 115.319 17.85 115.301 17.962H109.211V16.73H113.943L113.579 17.066C113.579 16.394 113.425 15.89 113.117 15.554C112.809 15.218 112.379 15.05 111.829 15.05C111.231 15.05 110.755 15.2553 110.401 15.666C110.055 16.0767 109.883 16.6693 109.883 17.444C109.883 18.2093 110.055 18.7973 110.401 19.208C110.755 19.6093 111.255 19.81 111.899 19.81C112.272 19.81 112.599 19.74 112.879 19.6C113.159 19.46 113.364 19.2453 113.495 18.956H115.161C114.927 19.628 114.531 20.16 113.971 20.552C113.42 20.944 112.725 21.14 111.885 21.14ZM117.022 21V13.342C117.022 12.558 117.242 11.9607 117.68 11.55C118.119 11.13 118.777 10.92 119.654 10.92H122.496V12.418H119.892C119.519 12.418 119.239 12.5113 119.052 12.698C118.875 12.8753 118.786 13.1367 118.786 13.482V21H117.022ZM115.734 15.33V13.86H120.214V15.33H115.734ZM121.6 21V10.92H123.378V21H121.6ZM128.3 21.14C127.544 21.14 126.881 20.9813 126.312 20.664C125.752 20.3467 125.313 19.908 124.996 19.348C124.688 18.788 124.534 18.144 124.534 17.416C124.534 16.688 124.688 16.0487 124.996 15.498C125.313 14.938 125.752 14.504 126.312 14.196C126.872 13.8787 127.525 13.72 128.272 13.72C128.981 13.72 129.597 13.8693 130.12 14.168C130.642 14.4573 131.048 14.868 131.338 15.4C131.627 15.932 131.772 16.5527 131.772 17.262C131.772 17.3927 131.767 17.514 131.758 17.626C131.748 17.738 131.734 17.85 131.716 17.962H125.626V16.73H130.358L129.994 17.066C129.994 16.394 129.84 15.89 129.532 15.554C129.224 15.218 128.794 15.05 128.244 15.05C127.646 15.05 127.17 15.2553 126.816 15.666C126.47 16.0767 126.298 16.6693 126.298 17.444C126.298 18.2093 126.47 18.7973 126.816 19.208C127.17 19.6093 127.67 19.81 128.314 19.81C128.687 19.81 129.014 19.74 129.294 19.6C129.574 19.46 129.779 19.2453 129.91 18.956H131.576C131.342 19.628 130.946 20.16 130.386 20.552C129.835 20.944 129.14 21.14 128.3 21.14ZM137.299 21L135.101 17.808L132.133 13.86H134.135L136.123 16.758L139.301 21H137.299ZM135.241 16.702L137.243 13.86H139.203L136.095 17.934L135.241 16.702ZM135.941 18.018L133.785 21H131.839L135.101 16.772L135.941 18.018Z" fill="#1C2024"/>
</g>
<defs>
<filter id="filter0_d_10442_4563" x="0" y="0" width="150" height="36" filterUnits="userSpaceOnUse" color-interpolation-filters="sRGB">
<feFlood flood-opacity="0" result="BackgroundImageFix"/>
<feColorMatrix in="SourceAlpha" type="matrix" values="0 0 0 0 0 0 0 0 0 0 0 0 0 0 0 0 0 0 127 0" result="hardAlpha"/>
<feOffset dy="2"/>
<feGaussianBlur stdDeviation="2"/>
<feComposite in2="hardAlpha" operator="out"/>
<feColorMatrix type="matrix" values="0 0 0 0 0.109804 0 0 0 0 0.12549 0 0 0 0 0.141176 0 0 0 0.05 0"/>
<feBlend mode="normal" in2="BackgroundImageFix" result="effect1_dropShadow_10442_4563"/>
<feBlend mode="normal" in="SourceGraphic" in2="effect1_dropShadow_10442_4563" result="shape"/>
</filter>
</defs>
</svg>
